/* XPM */
static char * play2_xpm[] = {
"24 24 63 1",
" 	c None",
".	c #000000",
"+	c #3B3E3A",
"@	c #535652",
"#	c #585858",
"$	c #E4E8E3",
"%	c #7C807A",
"&	c #0B0B0A",
"*	c #F5F7F3",
"=	c #E3E8E1",
"-	c #9AA098",
";	c #565956",
">	c #F6F7F6",
",	c #EFF3EE",
"'	c #E9EFE8",
")	c #B3BAB2",
"!	c #4D504C",
"~	c #F4F5F3",
"{	c #EDF1EC",
"]	c #EAF0E9",
"^	c #E8EEE7",
"/	c #D5DDD3",
"(	c #666A63",
"_	c #656764",
":	c #E8EDE6",
"<	c #DFE7DD",
"[	c #DBE5D9",
"}	c #D9E4D7",
"|	c #7B8579",
"1	c #0F110F",
"2	c #354030",
"3	c #8EB084",
"4	c #83A97C",
"5	c #83A87B",
"6	c #81A577",
"7	c #7BA071",
"8	c #608557",
"9	c #2B4127",
"0	c #050703",
"a	c #344030",
"b	c #8BAF81",
"c	c #83A979",
"d	c #81A578",
"e	c #759B6C",
"f	c #55754E",
"g	c #202C1E",
"h	c #344230",
"i	c #8BAE81",
"j	c #7FA374",
"k	c #6D9262",
"l	c #45643D",
"m	c #1D2B1A",
"n	c #303D2C",
"o	c #80A576",
"p	c #618758",
"q	c #324C2C",
"r	c #23311F",
"s	c #293727",
"t	c #5E8256",
"u	c #243820",
"v	c #020401",
"w	c #101A0D",
"x	c #172412",
"                        ",
"                        ",
"                        ",
"                        ",
"                        ",
"        .               ",
"        +@.             ",
"        #$%&            ",
"        #*=-;           ",
"        #>,')!          ",
"        #~{]^/(_        ",
"        #~{:<[}|1       ",
"        234567890       ",
"        abcdefgh        ",
"        aijklm          ",
"        nopqr           ",
"        stuv            ",
"        wx.             ",
"        .               ",
"                        ",
"                        ",
"                        ",
"                        ",
"                        "};
